<svg width="390" height="287" viewBox="0 0 390 287" fill="none" xmlns="http://www.w3.org/2000/svg">
<path fill-rule="evenodd" clip-rule="evenodd" d="M36 0C30.4772 0 26 4.47716 26 10V236C26 241.523 30.4771 246 36 246H355C360.523 246 365 241.523 365 236V10C365 4.47715 360.523 0 355 0H36ZM346.854 25H44.146V220H346.854V25Z" fill="#C8DAE0"/>
<rect y="267" width="390" height="20" rx="4" fill="#C8DAE0"/>
<rect x="60" y="251" width="69" height="10" rx="4" fill="#C8DAE0"/>
<rect x="262" y="251" width="69" height="10" rx="4" fill="#C8DAE0"/>
<path d="M94 108.763C94 103.773 96.8293 99.2032 101.328 97.0448C175.852 61.2888 219.531 58.0996 289.449 96.9016C293.518 99.1602 296 103.482 296 108.136V108.136C296 118.573 284.307 124.818 275.309 119.529C216.319 84.8565 175.399 85.8225 114.451 120.302C105.45 125.394 94 119.104 94 108.763V108.763Z" fill="#C8DAE0"/>
<path d="M132 142.169C132 138.875 133.735 135.815 136.59 134.171C183.497 107.158 210.967 104.767 254.999 134.132C257.517 135.81 259 138.659 259 141.685V141.685C259 149.445 249.931 153.785 243.521 149.412C208.544 125.553 183.458 126.231 147.344 150.046C140.899 154.296 132 149.889 132 142.169V142.169Z" fill="#C8DAE0"/>
<circle cx="195" cy="161" r="14" fill="#C8DAE0"/>
</svg>
