<svg width="258" height="297" viewBox="0 0 258 297" fill="none" xmlns="http://www.w3.org/2000/svg">
<path fill-rule="evenodd" clip-rule="evenodd" d="M57 72C57 32.2355 89.2355 0 129 0C168.764 0 201 32.2355 201 72V98.0833H218C240.091 98.0833 258 115.992 258 138.083V257C258 279.091 240.091 297 218 297H40C17.9086 297 0 279.091 0 257V138.083C0 115.992 17.9086 98.0833 40 98.0833H57V72ZM170.386 98.0833V70.4882C170.386 47.6315 151.857 29.1024 129 29.1024C106.143 29.1024 87.6141 47.6315 87.6141 70.4882V98.0833H170.386ZM142 194.948C150.345 190.737 156 182.599 156 173.25C156 159.581 143.912 148.5 129 148.5C114.088 148.5 102 159.581 102 173.25C102 182.599 107.655 190.737 116 194.948V231.75C116 238.93 121.82 244.75 129 244.75C136.18 244.75 142 238.93 142 231.75V194.948Z" fill="#C8DAE0"/>
</svg>
